<?xml version="1.0" encoding="UTF-8" standalone="no"?>
<svg
   xmlns:dc="http://purl.org/dc/elements/1.1/"
   xmlns:cc="http://creativecommons.org/ns#"
   xmlns:rdf="http://www.w3.org/1999/02/22-rdf-syntax-ns#"
   xmlns:svg="http://www.w3.org/2000/svg"
   xmlns="http://www.w3.org/2000/svg"
   id="svg58"
   preserveAspectRatio="xMidYMid"
   version="1.1"
   viewBox="0 0 255.10962 289.3222"
   height="289.3222"
   width="255.10962">
  <metadata
     id="metadata64">
    <rdf:RDF>
      <cc:Work
         rdf:about="">
        <dc:format>image/svg+xml</dc:format>
        <dc:type
           rdf:resource="http://purl.org/dc/dcmitype/StillImage" />
        <dc:title></dc:title>
      </cc:Work>
    </rdf:RDF>
  </metadata>
  <defs
     id="defs62" />
  <g
     transform="translate(-0.44518681,-70.765714)"
     id="g56">
    <path
       style="fill:#264de4"
       id="path38"
       d="M 127.84387,360.08791 23.661714,331.16624 0.44518681,70.765714 H 255.55481 L 232.31367,331.12545 Z" />
    <path
       style="fill:#2965f1"
       id="path40"
       d="M 212.4167,314.54664 232.2778,92.057319 H 128 V 337.95024 Z" />
    <path
       style="fill:#ebebeb"
       id="path42"
       d="m 53.668571,188.63613 2.862418,31.9367 H 128 v -31.9367 z" />
    <path
       style="fill:#ebebeb"
       id="path44"
       d="m 47.917011,123.99473 2.903209,31.9374 H 128 v -31.9374 z" />
    <path
       style="fill:#ebebeb"
       id="path46"
       d="m 128,271.58013 -0.13996,0.0373 -35.568524,-9.60422 -2.273758,-25.4713 H 57.957978 L 62.432352,286.68767 127.85301,304.8489 128,304.8081 v -33.22796 z" />
    <path
       style="fill:#ffffff"
       id="path54"
       d="m 202.12677,188.63613 5.76563,-64.6414 h -80.00282 v 31.9374 h 45.00255 l -2.90602,32.704 h -42.09653 v 31.9367 h 39.32695 l -3.70708,41.41996 -35.61987,9.61407 v 33.22655 l 65.47271,-18.14576 0.48035,-5.39569 7.50488,-84.07983 z" />
  </g>
</svg>
