<?xml version="1.0" encoding="UTF-8" standalone="no"?>
<svg
   xmlns:dc="http://purl.org/dc/elements/1.1/"
   xmlns:cc="http://creativecommons.org/ns#"
   xmlns:rdf="http://www.w3.org/1999/02/22-rdf-syntax-ns#"
   xmlns:svg="http://www.w3.org/2000/svg"
   xmlns="http://www.w3.org/2000/svg"
   xmlns:sodipodi="http://sodipodi.sourceforge.net/DTD/sodipodi-0.dtd"
   xmlns:inkscape="http://www.inkscape.org/namespaces/inkscape"
   width="129.57651"
   height="129.57469"
   viewBox="0 0 129.57651 129.57469"
   version="1.1"
   preserveAspectRatio="xMidYMid"
   id="svg22"
   sodipodi:docname="linkedin.svg"
   inkscape:version="0.92.3 (2405546, 2018-03-11)">
  <metadata
     id="metadata28">
    <rdf:RDF>
      <cc:Work
         rdf:about="">
        <dc:format>image/svg+xml</dc:format>
        <dc:type
           rdf:resource="http://purl.org/dc/dcmitype/StillImage" />
        <dc:title></dc:title>
      </cc:Work>
    </rdf:RDF>
  </metadata>
  <defs
     id="defs26" />
  <sodipodi:namedview
     pagecolor="#ffffff"
     bordercolor="#666666"
     borderopacity="1"
     objecttolerance="10"
     gridtolerance="10"
     guidetolerance="10"
     inkscape:pageopacity="0"
     inkscape:pageshadow="2"
     inkscape:window-width="1920"
     inkscape:window-height="1017"
     id="namedview24"
     showgrid="false"
     fit-margin-top="0"
     fit-margin-left="0"
     fit-margin-right="0"
     fit-margin-bottom="0"
     inkscape:zoom="1.1210937"
     inkscape:cx="56.259717"
     inkscape:cy="98.790478"
     inkscape:window-x="-8"
     inkscape:window-y="-8"
     inkscape:window-maximized="1"
     inkscape:current-layer="g20" />
  <g
     id="g20"
     transform="translate(-381.77923)">
    <path
       d="M 501.7636,0 H 391.34257 c -5.27657,0 -9.56334,4.1823831 -9.56334,9.3392759 V 120.22462 c 0,5.16139 4.28677,9.35007 9.56334,9.35007 H 501.7636 c 5.28557,0 9.59213,-4.18868 9.59213,-9.35007 V 9.3392759 C 511.35573,4.1823831 507.04917,0 501.7636,0"
       id="path14"
       inkscape:connector-curvature="0"
       style="fill:#006087" />
    <path
       d="m 410.6033,17.839016 c 6.1458,0 11.13803,4.993125 11.13803,11.139824 0,6.151199 -4.99223,11.146123 -11.13803,11.146123 -6.15839,0 -11.14432,-4.994924 -11.14432,-11.146123 0,-6.146699 4.98593,-11.139824 11.14432,-11.139824 z m -9.61282,30.738896 h 19.21845 v 61.836818 h -19.21845 z"
       id="path16"
       inkscape:connector-curvature="0"
       style="fill:#ffffff" />
    <path
       d="m 432.26297,48.577912 h 18.4365 v 8.44845 h 0.25555 c 2.5645,-4.860851 8.83448,-9.987149 18.18365,-9.987149 19.4614,0 23.0544,12.807198 23.0544,29.456646 V 110.41473 H 472.98812 V 80.343508 c 0,-7.174299 -0.13228,-16.397498 -9.98715,-16.397498 -10.00155,0 -11.53305,7.812275 -11.53305,15.878299 V 110.41473 H 432.26297 V 48.577912"
       id="path18"
       inkscape:connector-curvature="0"
       style="fill:#ffffff" />
  </g>
</svg>
